<svg xmlns="http://www.w3.org/2000/svg" xmlns:xlink="http://www.w3.org/1999/xlink" width="1920" height="1079" viewBox="0 0 1920 1079"><defs><style>.a{fill:url(#a);}.b{clip-path:url(#b);}.c{fill:url(#c);}.d{fill:url(#d);}.e{fill:#fff;opacity:0.11;}</style><radialGradient id="a" cx="0" cy="0" r="1.098" gradientUnits="objectBoundingBox"><stop offset="0" stop-color="#191919"/><stop offset="1" stop-color="#0a0a0a"/></radialGradient><clipPath id="b"><rect class="a" width="1920" height="1079" transform="translate(0 1)"/></clipPath><linearGradient id="c" x1="0.277" x2="0.733" y2="1.029" gradientUnits="objectBoundingBox"><stop offset="0" stop-color="#9ad4f0"/><stop offset="1" stop-color="#3c9cd7"/></linearGradient><linearGradient id="d" x1="0.277" x2="0.733" y2="1.029" gradientUnits="objectBoundingBox"><stop offset="0" stop-color="#549fff"/><stop offset="1" stop-color="#3c73bb"/></linearGradient></defs><g class="b" transform="translate(0 -1)"><g transform="translate(65.179 1181.832) rotate(-45)"><rect class="c" width="618.674" height="618.674" rx="40" transform="translate(1379.772 63.567) rotate(-30)"/><rect class="d" width="469.465" height="469.465" rx="40" transform="translate(1302.438 431.438) rotate(-30)"/><path class="e" d="M174.313,447.056h0L0,272.759,53.767,219,7.83,173.065,180.912,0l301.88,301.851,77.027-77.019-82.847-82.84-33.733,34.085L423.126,156.02l53.846-53.534,103.407,103.4L613.2,173.065l-130.41-130.4-86.665,86.321L374.82,107.781,482.792,1.4,654.468,173.065,602.7,224.832l47.932,47.927L476.972,446.4,174.313,143.771,99.078,219l81.833,81.826,54.455-54.451,21.746,21.745-76.2,76.194L75.19,238.6,41.026,272.759,174.313,406.031,283.854,296.5l20.514,20.511L174.313,447.055Zm-.733-345.3h0L476.225,404.374,607.473,273.138l-26.7-26.7-97.617,97.609L180.91,41.833,48.847,172.246l27.119,27.116,97.613-97.6Z" transform="matrix(0.259, -0.966, 0.966, 0.259, 1369.398, 610.91)"/></g></g></svg>