<svg xmlns="http://www.w3.org/2000/svg" xmlns:xlink="http://www.w3.org/1999/xlink" width="1920" height="1079" viewBox="0 0 1920 1079"><defs><style>.a{stroke:#707070;fill:url(#a);}.b{clip-path:url(#b);}.c{opacity:0.32;}.d{fill:url(#c);}.e{fill:url(#d);}.f{fill:#fff;opacity:0.11;}</style><radialGradient id="a" cx="0" cy="0" r="1.098" gradientUnits="objectBoundingBox"><stop offset="0" stop-color="#212121"/><stop offset="1" stop-color="#141414"/></radialGradient><clipPath id="b"><rect class="a" width="1920" height="1079" transform="translate(0 1)"/></clipPath><linearGradient id="c" x1="0.277" x2="0.733" y2="1.029" gradientUnits="objectBoundingBox"><stop offset="0" stop-color="#9ad4f0"/><stop offset="1" stop-color="#3c9cd7"/></linearGradient><linearGradient id="d" x1="0.277" x2="0.733" y2="1.029" gradientUnits="objectBoundingBox"><stop offset="0" stop-color="#549fff"/><stop offset="1" stop-color="#3c73bb"/></linearGradient></defs><g class="b" transform="translate(0 -1)"><g class="c"><rect class="d" width="801.4" height="801.4" rx="40" transform="matrix(-0.966, -0.259, 0.259, -0.966, 394.821, 1500.455)"/><rect class="e" width="608.121" height="608.121" rx="40" transform="matrix(-0.966, -0.259, 0.259, -0.966, 802.607, 1234.338)"/><path class="f" d="M225.8,579.093h0L0,353.319l69.646-69.641-59.5-59.5L234.344,0,625.384,391l99.777-99.768L617.846,183.929l-43.7,44.153L548.1,202.1l69.75-69.346L751.793,266.691l42.517-42.512L625.384,55.27,513.122,167.085l-27.6-27.47L625.384,1.819l222.381,222.36L780.7,291.235l62.089,62.084L617.846,578.245,225.8,186.232l-97.455,97.445,106,105.993,70.539-70.533L333.051,347.3,234.344,446,97.4,309.069,53.144,353.319,225.8,525.953,367.69,384.073l26.572,26.569L225.8,579.092Zm-.949-447.282h0L616.878,523.805l170.013-170-34.584-34.58L625.858,445.667,234.343,54.188,63.274,223.118,98.4,258.243,224.846,131.811Z" transform="translate(905.662 1008.618) rotate(150)"/></g></g></svg>