<svg xmlns="http://www.w3.org/2000/svg" width="133.617" height="91.271" viewBox="0 0 133.617 91.271"><defs><style>.a{fill:#fff;}</style></defs><path class="a" d="M35.587,91.271h0L0,55.687,10.977,44.711,1.6,35.333,36.935,0,98.567,61.626,114.293,45.9,97.379,28.989,85.668,40.7l-4.033-4.032L97.379,20.923l21.112,21.11,6.7-6.7L98.567,8.711,76.293,30.982l-4.357-4.357L98.567.287l35.05,35.046L123.047,45.9l9.786,9.785L97.379,91.137,35.588,29.352,20.228,44.711,36.935,61.416,48.053,50.3l4.44,4.439L36.935,70.3,15.351,48.712,8.376,55.687,35.588,82.9,57.952,60.534l4.188,4.187L35.588,91.271Zm-.149-70.5h0L97.226,82.557l26.8-26.793-5.451-5.45L98.642,70.241,36.935,8.541,9.972,35.166,15.509,40.7,35.438,20.775Z"/></svg>