<svg xmlns="http://www.w3.org/2000/svg" width="32.715" height="25.802" viewBox="0 0 32.715 25.802"><defs><style>.a{fill:#fff;}</style></defs><path class="a" d="M96.423,85.04a13.715,13.715,0,0,1-3.856,1.028,6.567,6.567,0,0,0,2.952-3.606,13.608,13.608,0,0,1-4.264,1.582,6.8,6.8,0,0,0-4.9-2.055,6.613,6.613,0,0,0-6.71,6.512,6.321,6.321,0,0,0,.174,1.486,19.252,19.252,0,0,1-13.833-6.806,6.327,6.327,0,0,0-.909,3.274,6.459,6.459,0,0,0,2.985,5.421,6.824,6.824,0,0,1-3.042-.816v.083a6.571,6.571,0,0,0,5.384,6.388,6.941,6.941,0,0,1-1.768.229,6.767,6.767,0,0,1-1.262-.117,6.694,6.694,0,0,0,6.271,4.524,13.721,13.721,0,0,1-8.337,2.789,14.111,14.111,0,0,1-1.6-.091A19.424,19.424,0,0,0,74,107.79,18.676,18.676,0,0,0,93.1,89.254l-.019-.843A13.4,13.4,0,0,0,96.423,85.04Z" transform="translate(-63.708 -81.988)"/></svg>